<svg height="32" viewBox="0 0 32 32" width="32" xmlns="http://www.w3.org/2000/svg"><path d="m25.817 13.151c.469 0 .844.38.844.839 0 .464-.375.844-.844.844h-2.339v1.5h2.339c.469 0 .844.375.844.839 0 .459-.375.839-.844.839h-3.177c-.463 0-.837-.38-.837-.839v-6.36c0-.463.375-.843.837-.843h3.183c.464 0 .839.38.839.843 0 .464-.375.839-.844.839h-2.339v1.5zm-5.134 4.021c0 .359-.235.683-.579.797-.083.025-.177.041-.265.041-.281 0-.521-.125-.683-.333l-3.255-4.427v3.921c0 .459-.371.839-.839.839-.464 0-.839-.38-.839-.839v-6.36c0-.359.235-.681.573-.796.083-.032.181-.043.26-.043.26 0 .5.141.661.339l3.281 4.437v-3.937c0-.463.375-.843.839-.843s.844.38.844.843zm-7.656 0c0 .459-.376.839-.844.839-.459 0-.833-.38-.833-.839v-6.36c0-.463.375-.843.839-.843.463 0 .839.38.839.843zm-3.287.839h-3.183c-.464 0-.844-.38-.844-.839v-6.36c0-.463.38-.843.844-.843s.839.38.839.843v5.521h2.344c.463 0 .839.375.839.839 0 .459-.381.839-.839.839zm22.26-4.262c0-7.161-7.183-12.989-16-12.989s-16 5.828-16 12.989c0 6.417 5.693 11.792 13.38 12.813.521.109 1.229.344 1.412.787.161.4.104 1.02.052 1.443l-.219 1.359c-.063.401-.323 1.579 1.396.86 1.724-.719 9.224-5.437 12.583-9.303 2.297-2.515 3.396-5.099 3.396-7.959z"/></svg>